<svg width="1009" height="1009" viewBox="0 0 1009 1009" fill="none" xmlns="http://www.w3.org/2000/svg">
<g filter="url(#filter0_i_334_5535)">
<path d="M404.585 602.037C402.065 604.557 397.756 602.773 397.756 599.209L397.758 505.232L397.758 411.256C397.758 407.692 402.066 405.908 404.586 408.428L498.562 502.404C500.124 503.966 500.124 506.498 498.562 508.06L404.585 602.037Z" fill="#07F728"/>
</g>
<g filter="url(#filter1_i_334_5535)">
<path d="M610.266 589.553C610.266 597.772 610.266 601.882 607.796 602.905C605.327 603.928 602.421 601.021 596.609 595.209L512.29 510.89C509.623 508.223 508.29 506.89 508.29 505.233C508.29 503.576 509.623 502.243 512.29 499.576L596.61 415.256C602.422 409.444 605.328 406.538 607.798 407.561C610.267 408.583 610.267 412.693 610.267 420.913L610.267 505.233L610.266 589.553Z" fill="#12D7F5"/>
</g>
<g filter="url(#filter2_i_334_5535)">
<path d="M507.021 498.561C505.459 500.123 502.926 500.123 501.364 498.561L407.388 404.585C404.868 402.065 406.653 397.757 410.216 397.757L489.172 397.757L598.169 397.756C601.733 397.756 603.518 402.064 600.998 404.584L507.021 498.561Z" fill="#FFD307"/>
</g>
<g filter="url(#filter3_i_334_5535)">
<path d="M493.907 612.708L410.217 612.709C406.653 612.709 404.868 608.401 407.388 605.881L501.365 511.904C502.927 510.342 505.46 510.342 507.022 511.904L600.998 605.88C603.518 608.4 601.733 612.708 598.17 612.708L493.907 612.708Z" fill="#FF0000"/>
</g>
<rect x="604.658" y="393.266" width="63.5088" height="63.5088" rx="6" transform="rotate(-180 604.658 393.266)" fill="white"/>
<rect x="604.658" y="327.315" width="63.5088" height="63.5088" rx="6" transform="rotate(-180 604.658 327.315)" fill="white"/>
<rect x="604.658" y="261.363" width="63.5088" height="63.5088" rx="6" transform="rotate(-180 604.658 261.363)" fill="white"/>
<rect x="604.658" y="195.412" width="63.5088" height="63.5088" rx="6" transform="rotate(-180 604.658 195.412)" fill="white"/>
<rect x="604.658" y="129.46" width="63.5088" height="63.5088" rx="6" transform="rotate(-180 604.658 129.46)" fill="#FFD307"/>
<rect x="604.658" y="63.5088" width="63.5088" height="63.5088" rx="6" transform="rotate(-180 604.658 63.5088)" fill="white"/>
<rect x="536.262" y="393.266" width="63.5088" height="63.5088" rx="6" transform="rotate(-180 536.262 393.266)" fill="#FFD307"/>
<rect x="536.262" y="327.315" width="63.5088" height="63.5088" rx="6" transform="rotate(-180 536.262 327.315)" fill="#FFD71D"/>
<rect x="536.262" y="261.363" width="63.5088" height="63.5088" rx="6" transform="rotate(-180 536.262 261.363)" fill="#FFDF4E"/>
<rect x="536.262" y="195.412" width="63.5088" height="63.5088" rx="6" transform="rotate(-180 536.262 195.412)" fill="#FFE776"/>
<rect x="536.262" y="129.46" width="63.5088" height="63.5088" rx="6" transform="rotate(-180 536.262 129.46)" fill="#FFED9E"/>
<rect x="536.262" y="63.5088" width="63.5088" height="63.5088" rx="6" transform="rotate(-180 536.262 63.5088)" fill="white"/>
<rect x="467.87" y="393.266" width="63.5088" height="63.5088" rx="6" transform="rotate(-180 467.87 393.266)" fill="white"/>
<rect x="467.87" y="327.315" width="63.5088" height="63.5088" rx="6" transform="rotate(-180 467.87 327.315)" fill="white"/>
<rect x="467.87" y="261.363" width="63.5088" height="63.5088" rx="6" transform="rotate(-180 467.87 261.363)" fill="white"/>
<rect x="467.583" y="195.166" width="63.5088" height="63.5088" rx="6" transform="rotate(-180 467.583 195.166)" fill="white"/>
<path d="M435.118 186.892C435.508 187.532 436.436 187.532 436.826 186.892L457.661 152.705C458.067 152.039 457.587 151.185 456.807 151.185H415.137C414.357 151.185 413.877 152.039 414.284 152.705L435.118 186.892Z" fill="#AEAEAE"/>
<path d="M435.118 140.216C435.508 139.577 436.436 139.577 436.826 140.216L457.661 174.403C458.067 175.07 457.587 175.924 456.807 175.924H415.137C414.357 175.924 413.877 175.07 414.284 174.403L435.118 140.216Z" fill="#AEAEAE"/>
<path d="M430.428 160.416C433.131 156.585 438.813 156.585 441.516 160.416C444.688 164.911 441.473 171.113 435.972 171.113C430.471 171.113 427.256 164.911 430.428 160.416Z" fill="white"/>
<rect x="467.87" y="129.46" width="63.5088" height="63.5088" rx="6" transform="rotate(-180 467.87 129.46)" fill="white"/>
<rect x="467.87" y="63.5088" width="63.5088" height="63.5088" rx="6" transform="rotate(-180 467.87 63.5088)" fill="white"/>
<g filter="url(#filter4_i_334_5535)">
<rect x="615.734" y="604.372" width="63.5088" height="63.5088" rx="6" transform="rotate(-90 615.734 604.372)" fill="white"/>
</g>
<g filter="url(#filter5_i_334_5535)">
<rect x="681.685" y="604.372" width="63.5088" height="63.5088" rx="6" transform="rotate(-90 681.685 604.372)" fill="white"/>
</g>
<g filter="url(#filter6_i_334_5535)">
<rect x="747.637" y="604.372" width="63.5088" height="63.5088" rx="6" transform="rotate(-90 747.637 604.372)" fill="white"/>
</g>
<g filter="url(#filter7_i_334_5535)">
<rect x="813.588" y="604.372" width="63.5088" height="63.5088" rx="6" transform="rotate(-90 813.588 604.372)" fill="white"/>
</g>
<g filter="url(#filter8_i_334_5535)">
<rect x="879.539" y="604.372" width="63.5088" height="63.5088" rx="6" transform="rotate(-90 879.539 604.372)" fill="#12D7F5"/>
</g>
<g filter="url(#filter9_i_334_5535)">
<rect x="945.492" y="604.372" width="63.5088" height="63.5088" rx="6" transform="rotate(-90 945.492 604.372)" fill="white"/>
</g>
<g filter="url(#filter10_i_334_5535)">
<rect x="615.734" y="535.978" width="63.5088" height="63.5088" rx="6" transform="rotate(-90 615.734 535.978)" fill="#13E0FF"/>
</g>
<g filter="url(#filter11_i_334_5535)">
<rect x="681.685" y="535.978" width="63.5088" height="63.5088" rx="6" transform="rotate(-90 681.685 535.978)" fill="#3CE4FF"/>
</g>
<g filter="url(#filter12_i_334_5535)">
<rect x="747.637" y="535.978" width="63.5088" height="63.5088" rx="6" transform="rotate(-90 747.637 535.978)" fill="#6FE6FF"/>
</g>
<g filter="url(#filter13_i_334_5535)">
<rect x="813.588" y="535.978" width="63.5088" height="63.5088" rx="6" transform="rotate(-90 813.588 535.978)" fill="#9FEEFF"/>
</g>
<g filter="url(#filter14_i_334_5535)">
<rect x="879.539" y="535.978" width="63.5088" height="63.5088" rx="6" transform="rotate(-90 879.539 535.978)" fill="#C1F4FF"/>
</g>
<g filter="url(#filter15_i_334_5535)">
<rect x="945.492" y="535.978" width="63.5088" height="63.5088" rx="6" transform="rotate(-90 945.492 535.978)" fill="white"/>
</g>
<g filter="url(#filter16_i_334_5535)">
<rect x="615.734" y="467.583" width="63.5088" height="63.5088" rx="6" transform="rotate(-90 615.734 467.583)" fill="white"/>
</g>
<g filter="url(#filter17_i_334_5535)">
<rect x="681.685" y="467.583" width="63.5088" height="63.5088" rx="6" transform="rotate(-90 681.685 467.583)" fill="white"/>
</g>
<g filter="url(#filter18_i_334_5535)">
<rect x="747.637" y="467.583" width="63.5088" height="63.5088" rx="6" transform="rotate(-90 747.637 467.583)" fill="white"/>
</g>
<g filter="url(#filter19_i_334_5535)">
<rect x="813.588" y="467.583" width="63.5088" height="63.5088" rx="6" transform="rotate(-90 813.588 467.583)" fill="white"/>
</g>
<g filter="url(#filter20_i_334_5535)">
<rect x="879.539" y="467.583" width="63.5088" height="63.5088" rx="6" transform="rotate(-90 879.539 467.583)" fill="white"/>
</g>
<g filter="url(#filter21_i_334_5535)">
<rect x="945.492" y="467.583" width="63.5088" height="63.5088" rx="6" transform="rotate(-90 945.492 467.583)" fill="white"/>
</g>
<path d="M844.406 459.024C844.795 459.664 845.724 459.664 846.114 459.024L866.948 424.837C867.354 424.171 866.875 423.317 866.094 423.317H824.425C823.645 423.317 823.165 424.171 823.571 424.837L844.406 459.024Z" fill="#AEAEAE"/>
<path d="M844.406 412.348C844.795 411.709 845.724 411.709 846.114 412.348L866.948 446.536C867.354 447.202 866.875 448.056 866.094 448.056H824.425C823.645 448.056 823.165 447.202 823.571 446.536L844.406 412.348Z" fill="#AEAEAE"/>
<path d="M839.716 432.548C842.419 428.717 848.101 428.717 850.804 432.548C853.976 437.043 850.761 443.245 845.26 443.245C839.759 443.245 836.544 437.043 839.716 432.548Z" fill="white"/>
<g filter="url(#filter22_i_334_5535)">
<rect x="604.372" y="1009" width="63.5088" height="63.5088" rx="6" transform="rotate(-180 604.372 1009)" fill="white"/>
</g>
<g filter="url(#filter23_i_334_5535)">
<rect x="535.978" y="1009" width="63.5088" height="63.5088" rx="6" transform="rotate(-180 535.978 1009)" fill="white"/>
</g>
<g filter="url(#filter24_i_334_5535)">
<rect x="467.583" y="1009" width="63.5088" height="63.5088" rx="6" transform="rotate(-180 467.583 1009)" fill="white"/>
</g>
<g filter="url(#filter25_i_334_5535)">
<rect x="604.372" y="943.049" width="63.5088" height="63.5088" rx="6" transform="rotate(-180 604.372 943.049)" fill="white"/>
</g>
<g filter="url(#filter26_i_334_5535)">
<rect x="604.372" y="877.097" width="63.5088" height="63.5088" rx="6" transform="rotate(-180 604.372 877.097)" fill="white"/>
</g>
<g filter="url(#filter27_i_334_5535)">
<rect x="604.372" y="811.146" width="63.5088" height="63.5088" rx="6" transform="rotate(-180 604.372 811.146)" fill="white"/>
</g>
<g filter="url(#filter28_i_334_5535)">
<rect x="604.372" y="745.194" width="63.5088" height="63.5088" rx="6" transform="rotate(-180 604.372 745.194)" fill="white"/>
</g>
<g filter="url(#filter29_i_334_5535)">
<rect x="604.372" y="679.243" width="63.5088" height="63.5088" rx="6" transform="rotate(-180 604.372 679.243)" fill="white"/>
</g>
<g filter="url(#filter30_i_334_5535)">
<rect x="535.978" y="943.049" width="63.5088" height="63.5088" rx="6" transform="rotate(-180 535.978 943.049)" fill="#FFA0A0"/>
</g>
<g filter="url(#filter31_i_334_5535)">
<rect x="535.978" y="877.097" width="63.5088" height="63.5088" rx="6" transform="rotate(-180 535.978 877.097)" fill="#FF6868"/>
</g>
<g filter="url(#filter32_i_334_5535)">
<rect x="535.978" y="811.146" width="63.5088" height="63.5088" rx="6" transform="rotate(-180 535.978 811.146)" fill="#FF3F3F"/>
</g>
<g filter="url(#filter33_i_334_5535)">
<rect x="535.978" y="745.194" width="63.5088" height="63.5088" rx="6" transform="rotate(-180 535.978 745.194)" fill="#FF3C3C"/>
</g>
<g filter="url(#filter34_i_334_5535)">
<rect x="535.978" y="679.243" width="63.5088" height="63.5088" rx="6" transform="rotate(-180 535.978 679.243)" fill="#FF0000"/>
</g>
<g filter="url(#filter35_i_334_5535)">
<rect x="467.583" y="943.049" width="63.5088" height="63.5088" rx="6" transform="rotate(-180 467.583 943.049)" fill="#FF0000"/>
</g>
<g filter="url(#filter36_i_334_5535)">
<path d="M467.583 871.097C467.583 874.411 464.897 877.097 461.583 877.097H410.075C406.761 877.097 404.075 874.411 404.075 871.097V820.695C404.075 817.427 406.691 814.759 409.959 814.696L461.468 813.706C464.826 813.641 467.583 816.346 467.583 819.705V871.097Z" fill="white"/>
</g>
<g filter="url(#filter37_i_334_5535)">
<rect x="467.583" y="811.146" width="63.5088" height="63.5088" rx="6" transform="rotate(-180 467.583 811.146)" fill="white"/>
</g>
<g filter="url(#filter38_i_334_5535)">
<rect x="467.583" y="745.194" width="63.5088" height="63.5088" rx="6" transform="rotate(-180 467.583 745.194)" fill="white"/>
</g>
<g filter="url(#filter39_i_334_5535)">
<rect x="467.583" y="679.243" width="63.5088" height="63.5088" rx="6" transform="rotate(-180 467.583 679.243)" fill="white"/>
</g>
<path d="M551.793 873.228C552.182 873.867 553.111 873.867 553.5 873.228L559.947 862.649C560.353 861.983 559.874 861.129 559.093 861.129H546.2C545.419 861.129 544.94 861.983 545.346 862.649L551.793 873.228Z" fill="#AEAEAE"/>
<path d="M551.793 858.03C552.182 857.391 553.111 857.391 553.5 858.03L559.947 868.609C560.353 869.275 559.874 870.129 559.093 870.129H546.2C545.419 870.129 544.94 869.275 545.346 868.609L551.793 858.03Z" fill="#AEAEAE"/>
<path d="M550.63 864.487C551.613 863.093 553.68 863.093 554.663 864.487C555.817 866.122 554.648 868.379 552.646 868.379C550.645 868.379 549.476 866.122 550.63 864.487Z" fill="white"/>
<g filter="url(#filter40_i_334_5535)">
<path d="M1006.06 634.482C1006.06 625.646 998.901 618.482 990.065 618.482H636.132C627.295 618.482 620.132 625.646 620.132 634.482V988.415C620.132 997.252 627.295 1004.42 636.132 1004.42H990.065C998.901 1004.42 1006.06 997.252 1006.06 988.415V634.482Z" fill="#009DFF"/>
</g>
<g filter="url(#filter41_i_334_5535)">
<path d="M2.74902 634.482C2.74902 625.646 9.91247 618.482 18.749 618.482H372.682C381.519 618.482 388.682 625.646 388.682 634.482V988.415C388.682 997.252 381.519 1004.42 372.682 1004.42H18.749C9.91248 1004.42 2.74902 997.252 2.74902 988.415V634.482Z" fill="#FF0000"/>
</g>
<g filter="url(#filter42_i_334_5535)">
<path d="M2.74902 18.7488C2.74902 9.91224 9.91247 2.74878 18.749 2.74878H372.682C381.519 2.74878 388.682 9.91222 388.682 18.7488V372.682C388.682 381.518 381.519 388.682 372.682 388.682H18.749C9.91248 388.682 2.74902 381.518 2.74902 372.682V18.7488Z" fill="#07F728"/>
</g>
<g filter="url(#filter43_i_334_5535)">
<path d="M1006.06 18.7488C1006.06 9.91224 998.901 2.74878 990.065 2.74878H636.132C627.295 2.74878 620.132 9.91222 620.132 18.7488V372.682C620.132 381.518 627.295 388.682 636.132 388.682H990.065C998.901 388.682 1006.06 381.518 1006.06 372.682V18.7488Z" fill="#FF6F00"/>
</g>
<rect y="604.372" width="63.5088" height="63.5088" rx="6" transform="rotate(-90 0 604.372)" fill="white"/>
<rect x="65.9526" y="604.372" width="63.5088" height="63.5088" rx="6" transform="rotate(-90 65.9526 604.372)" fill="white"/>
<rect x="131.943" y="604.738" width="63.5088" height="63.5088" rx="6" transform="rotate(-90 131.943 604.738)" fill="white"/>
<rect x="197.855" y="604.372" width="63.5088" height="63.5088" rx="6" transform="rotate(-90 197.855 604.372)" fill="white"/>
<rect x="263.805" y="604.372" width="63.5088" height="63.5088" rx="6" transform="rotate(-90 263.805 604.372)" fill="white"/>
<rect x="329.758" y="604.372" width="63.5088" height="63.5088" rx="6" transform="rotate(-90 329.758 604.372)" fill="white"/>
<rect y="535.978" width="63.5088" height="63.5088" rx="6" transform="rotate(-90 0 535.978)" fill="white"/>
<rect x="65.9526" y="535.978" width="63.5088" height="63.5088" rx="6" transform="rotate(-90 65.9526 535.978)" fill="#BBFFC4"/>
<rect x="131.903" y="535.978" width="63.5088" height="63.5088" rx="6" transform="rotate(-90 131.903 535.978)" fill="#83FA94"/>
<rect x="197.855" y="535.978" width="63.5088" height="63.5088" rx="6" transform="rotate(-90 197.855 535.978)" fill="#4FFF67"/>
<rect x="263.805" y="535.978" width="63.5088" height="63.5088" rx="6" transform="rotate(-90 263.805 535.978)" fill="#23FF41"/>
<rect x="329.758" y="535.978" width="63.5088" height="63.5088" rx="6" transform="rotate(-90 329.758 535.978)" fill="#00FF23"/>
<rect y="467.584" width="63.5088" height="63.5088" rx="6" transform="rotate(-90 0 467.584)" fill="white"/>
<rect x="65.9526" y="467.584" width="63.5088" height="63.5088" rx="6" transform="rotate(-90 65.9526 467.584)" fill="#07F728"/>
<rect x="131.903" y="467.584" width="63.5088" height="63.5088" rx="6" transform="rotate(-90 131.903 467.584)" fill="white"/>
<rect x="197.855" y="467.584" width="63.5088" height="63.5088" rx="6" transform="rotate(-90 197.855 467.584)" fill="white"/>
<rect x="200.298" y="406.518" width="58.6235" height="58.6235" rx="6" fill="white"/>
<rect x="263.805" y="467.584" width="63.5088" height="63.5088" rx="6" transform="rotate(-90 263.805 467.584)" fill="white"/>
<rect x="329.758" y="467.584" width="63.5088" height="63.5088" rx="6" transform="rotate(-90 329.758 467.584)" fill="white"/>
<path d="M162.7 595.091C163.09 595.73 164.018 595.73 164.408 595.091L185.243 560.903C185.649 560.237 185.169 559.383 184.389 559.383H142.719C141.939 559.383 141.459 560.237 141.866 560.903L162.7 595.091Z" fill="#AEAEAE"/>
<path d="M162.7 548.415C163.09 547.775 164.018 547.775 164.408 548.415L185.243 582.602C185.649 583.268 185.169 584.122 184.389 584.122H142.719C141.939 584.122 141.459 583.268 141.866 582.602L162.7 548.415Z" fill="#AEAEAE"/>
<path d="M158.01 568.614C160.713 564.783 166.395 564.783 169.098 568.614C172.27 573.109 169.055 579.312 163.554 579.312C158.053 579.312 154.838 573.109 158.01 568.614Z" fill="white"/>
<defs>
<filter id="filter0_i_334_5535" x="397.756" y="407.248" width="102.977" height="196.969" filterUnits="userSpaceOnUse" color-interpolation-filters="sRGB">
<feFlood flood-opacity="0" result="BackgroundImageFix"/>
<feBlend mode="normal" in="SourceGraphic" in2="BackgroundImageFix" result="shape"/>
<feColorMatrix in="SourceAlpha" type="matrix" values="0 0 0 0 0 0 0 0 0 0 0 0 0 0 0 0 0 0 127 0" result="hardAlpha"/>
<feOffset dx="1" dy="1"/>
<feGaussianBlur stdDeviation="2"/>
<feComposite in2="hardAlpha" operator="arithmetic" k2="-1" k3="1"/>
<feColorMatrix type="matrix" values="0 0 0 0 0 0 0 0 0 0 0 0 0 0 0 0 0 0 0.25 0"/>
<feBlend mode="normal" in2="shape" result="effect1_innerShadow_334_5535"/>
</filter>
<filter id="filter1_i_334_5535" x="508.29" y="407.359" width="102.977" height="197.748" filterUnits="userSpaceOnUse" color-interpolation-filters="sRGB">
<feFlood flood-opacity="0" result="BackgroundImageFix"/>
<feBlend mode="normal" in="SourceGraphic" in2="BackgroundImageFix" result="shape"/>
<feColorMatrix in="SourceAlpha" type="matrix" values="0 0 0 0 0 0 0 0 0 0 0 0 0 0 0 0 0 0 127 0" result="hardAlpha"/>
<feOffset dx="1" dy="2"/>
<feGaussianBlur stdDeviation="2"/>
<feComposite in2="hardAlpha" operator="arithmetic" k2="-1" k3="1"/>
<feColorMatrix type="matrix" values="0 0 0 0 0 0 0 0 0 0 0 0 0 0 0 0 0 0 0.25 0"/>
<feBlend mode="normal" in2="shape" result="effect1_innerShadow_334_5535"/>
</filter>
<filter id="filter2_i_334_5535" x="406.208" y="397.756" width="196.969" height="103.977" filterUnits="userSpaceOnUse" color-interpolation-filters="sRGB">
<feFlood flood-opacity="0" result="BackgroundImageFix"/>
<feBlend mode="normal" in="SourceGraphic" in2="BackgroundImageFix" result="shape"/>
<feColorMatrix in="SourceAlpha" type="matrix" values="0 0 0 0 0 0 0 0 0 0 0 0 0 0 0 0 0 0 127 0" result="hardAlpha"/>
<feOffset dx="1" dy="2"/>
<feGaussianBlur stdDeviation="2"/>
<feComposite in2="hardAlpha" operator="arithmetic" k2="-1" k3="1"/>
<feColorMatrix type="matrix" values="0 0 0 0 0 0 0 0 0 0 0 0 0 0 0 0 0 0 0.25 0"/>
<feBlend mode="normal" in2="shape" result="effect1_innerShadow_334_5535"/>
</filter>
<filter id="filter3_i_334_5535" x="406.208" y="510.732" width="196.969" height="103.977" filterUnits="userSpaceOnUse" color-interpolation-filters="sRGB">
<feFlood flood-opacity="0" result="BackgroundImageFix"/>
<feBlend mode="normal" in="SourceGraphic" in2="BackgroundImageFix" result="shape"/>
<feColorMatrix in="SourceAlpha" type="matrix" values="0 0 0 0 0 0 0 0 0 0 0 0 0 0 0 0 0 0 127 0" result="hardAlpha"/>
<feOffset dx="1" dy="2"/>
<feGaussianBlur stdDeviation="2"/>
<feComposite in2="hardAlpha" operator="arithmetic" k2="-1" k3="1"/>
<feColorMatrix type="matrix" values="0 0 0 0 0 0 0 0 0 0 0 0 0 0 0 0 0 0 0.25 0"/>
<feBlend mode="normal" in2="shape" result="effect1_innerShadow_334_5535"/>
</filter>
<filter id="filter4_i_334_5535" x="615.734" y="539.863" width="63.5088" height="64.5088" filterUnits="userSpaceOnUse" color-interpolation-filters="sRGB">
<feFlood flood-opacity="0" result="BackgroundImageFix"/>
<feBlend mode="normal" in="SourceGraphic" in2="BackgroundImageFix" result="shape"/>
<feColorMatrix in="SourceAlpha" type="matrix" values="0 0 0 0 0 0 0 0 0 0 0 0 0 0 0 0 0 0 127 0" result="hardAlpha"/>
<feOffset dy="-1"/>
<feGaussianBlur stdDeviation="2"/>
<feComposite in2="hardAlpha" operator="arithmetic" k2="-1" k3="1"/>
<feColorMatrix type="matrix" values="0 0 0 0 0 0 0 0 0 0 0 0 0 0 0 0 0 0 0.25 0"/>
<feBlend mode="normal" in2="shape" result="effect1_innerShadow_334_5535"/>
</filter>
<filter id="filter5_i_334_5535" x="681.685" y="539.863" width="63.5088" height="64.5088" filterUnits="userSpaceOnUse" color-interpolation-filters="sRGB">
<feFlood flood-opacity="0" result="BackgroundImageFix"/>
<feBlend mode="normal" in="SourceGraphic" in2="BackgroundImageFix" result="shape"/>
<feColorMatrix in="SourceAlpha" type="matrix" values="0 0 0 0 0 0 0 0 0 0 0 0 0 0 0 0 0 0 127 0" result="hardAlpha"/>
<feOffset dy="-1"/>
<feGaussianBlur stdDeviation="2"/>
<feComposite in2="hardAlpha" operator="arithmetic" k2="-1" k3="1"/>
<feColorMatrix type="matrix" values="0 0 0 0 0 0 0 0 0 0 0 0 0 0 0 0 0 0 0.25 0"/>
<feBlend mode="normal" in2="shape" result="effect1_innerShadow_334_5535"/>
</filter>
<filter id="filter6_i_334_5535" x="747.637" y="539.863" width="63.5088" height="64.5088" filterUnits="userSpaceOnUse" color-interpolation-filters="sRGB">
<feFlood flood-opacity="0" result="BackgroundImageFix"/>
<feBlend mode="normal" in="SourceGraphic" in2="BackgroundImageFix" result="shape"/>
<feColorMatrix in="SourceAlpha" type="matrix" values="0 0 0 0 0 0 0 0 0 0 0 0 0 0 0 0 0 0 127 0" result="hardAlpha"/>
<feOffset dy="-1"/>
<feGaussianBlur stdDeviation="2"/>
<feComposite in2="hardAlpha" operator="arithmetic" k2="-1" k3="1"/>
<feColorMatrix type="matrix" values="0 0 0 0 0 0 0 0 0 0 0 0 0 0 0 0 0 0 0.25 0"/>
<feBlend mode="normal" in2="shape" result="effect1_innerShadow_334_5535"/>
</filter>
<filter id="filter7_i_334_5535" x="813.588" y="539.863" width="63.5088" height="64.5088" filterUnits="userSpaceOnUse" color-interpolation-filters="sRGB">
<feFlood flood-opacity="0" result="BackgroundImageFix"/>
<feBlend mode="normal" in="SourceGraphic" in2="BackgroundImageFix" result="shape"/>
<feColorMatrix in="SourceAlpha" type="matrix" values="0 0 0 0 0 0 0 0 0 0 0 0 0 0 0 0 0 0 127 0" result="hardAlpha"/>
<feOffset dy="-1"/>
<feGaussianBlur stdDeviation="2"/>
<feComposite in2="hardAlpha" operator="arithmetic" k2="-1" k3="1"/>
<feColorMatrix type="matrix" values="0 0 0 0 0 0 0 0 0 0 0 0 0 0 0 0 0 0 0.25 0"/>
<feBlend mode="normal" in2="shape" result="effect1_innerShadow_334_5535"/>
</filter>
<filter id="filter8_i_334_5535" x="879.539" y="539.863" width="63.5088" height="64.5088" filterUnits="userSpaceOnUse" color-interpolation-filters="sRGB">
<feFlood flood-opacity="0" result="BackgroundImageFix"/>
<feBlend mode="normal" in="SourceGraphic" in2="BackgroundImageFix" result="shape"/>
<feColorMatrix in="SourceAlpha" type="matrix" values="0 0 0 0 0 0 0 0 0 0 0 0 0 0 0 0 0 0 127 0" result="hardAlpha"/>
<feOffset dy="-1"/>
<feGaussianBlur stdDeviation="2"/>
<feComposite in2="hardAlpha" operator="arithmetic" k2="-1" k3="1"/>
<feColorMatrix type="matrix" values="0 0 0 0 0 0 0 0 0 0 0 0 0 0 0 0 0 0 0.25 0"/>
<feBlend mode="normal" in2="shape" result="effect1_innerShadow_334_5535"/>
</filter>
<filter id="filter9_i_334_5535" x="945.492" y="539.863" width="63.5088" height="64.5088" filterUnits="userSpaceOnUse" color-interpolation-filters="sRGB">
<feFlood flood-opacity="0" result="BackgroundImageFix"/>
<feBlend mode="normal" in="SourceGraphic" in2="BackgroundImageFix" result="shape"/>
<feColorMatrix in="SourceAlpha" type="matrix" values="0 0 0 0 0 0 0 0 0 0 0 0 0 0 0 0 0 0 127 0" result="hardAlpha"/>
<feOffset dy="-1"/>
<feGaussianBlur stdDeviation="2"/>
<feComposite in2="hardAlpha" operator="arithmetic" k2="-1" k3="1"/>
<feColorMatrix type="matrix" values="0 0 0 0 0 0 0 0 0 0 0 0 0 0 0 0 0 0 0.25 0"/>
<feBlend mode="normal" in2="shape" result="effect1_innerShadow_334_5535"/>
</filter>
<filter id="filter10_i_334_5535" x="615.734" y="471.469" width="63.5088" height="64.5088" filterUnits="userSpaceOnUse" color-interpolation-filters="sRGB">
<feFlood flood-opacity="0" result="BackgroundImageFix"/>
<feBlend mode="normal" in="SourceGraphic" in2="BackgroundImageFix" result="shape"/>
<feColorMatrix in="SourceAlpha" type="matrix" values="0 0 0 0 0 0 0 0 0 0 0 0 0 0 0 0 0 0 127 0" result="hardAlpha"/>
<feOffset dy="-1"/>
<feGaussianBlur stdDeviation="2"/>
<feComposite in2="hardAlpha" operator="arithmetic" k2="-1" k3="1"/>
<feColorMatrix type="matrix" values="0 0 0 0 0 0 0 0 0 0 0 0 0 0 0 0 0 0 0.25 0"/>
<feBlend mode="normal" in2="shape" result="effect1_innerShadow_334_5535"/>
</filter>
<filter id="filter11_i_334_5535" x="681.685" y="471.469" width="63.5088" height="64.5088" filterUnits="userSpaceOnUse" color-interpolation-filters="sRGB">
<feFlood flood-opacity="0" result="BackgroundImageFix"/>
<feBlend mode="normal" in="SourceGraphic" in2="BackgroundImageFix" result="shape"/>
<feColorMatrix in="SourceAlpha" type="matrix" values="0 0 0 0 0 0 0 0 0 0 0 0 0 0 0 0 0 0 127 0" result="hardAlpha"/>
<feOffset dy="-1"/>
<feGaussianBlur stdDeviation="2"/>
<feComposite in2="hardAlpha" operator="arithmetic" k2="-1" k3="1"/>
<feColorMatrix type="matrix" values="0 0 0 0 0 0 0 0 0 0 0 0 0 0 0 0 0 0 0.25 0"/>
<feBlend mode="normal" in2="shape" result="effect1_innerShadow_334_5535"/>
</filter>
<filter id="filter12_i_334_5535" x="747.637" y="471.469" width="63.5088" height="64.5088" filterUnits="userSpaceOnUse" color-interpolation-filters="sRGB">
<feFlood flood-opacity="0" result="BackgroundImageFix"/>
<feBlend mode="normal" in="SourceGraphic" in2="BackgroundImageFix" result="shape"/>
<feColorMatrix in="SourceAlpha" type="matrix" values="0 0 0 0 0 0 0 0 0 0 0 0 0 0 0 0 0 0 127 0" result="hardAlpha"/>
<feOffset dy="-1"/>
<feGaussianBlur stdDeviation="2"/>
<feComposite in2="hardAlpha" operator="arithmetic" k2="-1" k3="1"/>
<feColorMatrix type="matrix" values="0 0 0 0 0 0 0 0 0 0 0 0 0 0 0 0 0 0 0.25 0"/>
<feBlend mode="normal" in2="shape" result="effect1_innerShadow_334_5535"/>
</filter>
<filter id="filter13_i_334_5535" x="813.588" y="471.469" width="63.5088" height="64.5088" filterUnits="userSpaceOnUse" color-interpolation-filters="sRGB">
<feFlood flood-opacity="0" result="BackgroundImageFix"/>
<feBlend mode="normal" in="SourceGraphic" in2="BackgroundImageFix" result="shape"/>
<feColorMatrix in="SourceAlpha" type="matrix" values="0 0 0 0 0 0 0 0 0 0 0 0 0 0 0 0 0 0 127 0" result="hardAlpha"/>
<feOffset dy="-1"/>
<feGaussianBlur stdDeviation="2"/>
<feComposite in2="hardAlpha" operator="arithmetic" k2="-1" k3="1"/>
<feColorMatrix type="matrix" values="0 0 0 0 0 0 0 0 0 0 0 0 0 0 0 0 0 0 0.25 0"/>
<feBlend mode="normal" in2="shape" result="effect1_innerShadow_334_5535"/>
</filter>
<filter id="filter14_i_334_5535" x="879.539" y="471.469" width="63.5088" height="64.5088" filterUnits="userSpaceOnUse" color-interpolation-filters="sRGB">
<feFlood flood-opacity="0" result="BackgroundImageFix"/>
<feBlend mode="normal" in="SourceGraphic" in2="BackgroundImageFix" result="shape"/>
<feColorMatrix in="SourceAlpha" type="matrix" values="0 0 0 0 0 0 0 0 0 0 0 0 0 0 0 0 0 0 127 0" result="hardAlpha"/>
<feOffset dy="-1"/>
<feGaussianBlur stdDeviation="2"/>
<feComposite in2="hardAlpha" operator="arithmetic" k2="-1" k3="1"/>
<feColorMatrix type="matrix" values="0 0 0 0 0 0 0 0 0 0 0 0 0 0 0 0 0 0 0.25 0"/>
<feBlend mode="normal" in2="shape" result="effect1_innerShadow_334_5535"/>
</filter>
<filter id="filter15_i_334_5535" x="945.492" y="471.469" width="63.5088" height="64.5088" filterUnits="userSpaceOnUse" color-interpolation-filters="sRGB">
<feFlood flood-opacity="0" result="BackgroundImageFix"/>
<feBlend mode="normal" in="SourceGraphic" in2="BackgroundImageFix" result="shape"/>
<feColorMatrix in="SourceAlpha" type="matrix" values="0 0 0 0 0 0 0 0 0 0 0 0 0 0 0 0 0 0 127 0" result="hardAlpha"/>
<feOffset dy="-1"/>
<feGaussianBlur stdDeviation="2"/>
<feComposite in2="hardAlpha" operator="arithmetic" k2="-1" k3="1"/>
<feColorMatrix type="matrix" values="0 0 0 0 0 0 0 0 0 0 0 0 0 0 0 0 0 0 0.25 0"/>
<feBlend mode="normal" in2="shape" result="effect1_innerShadow_334_5535"/>
</filter>
<filter id="filter16_i_334_5535" x="615.734" y="403.075" width="63.5088" height="64.5088" filterUnits="userSpaceOnUse" color-interpolation-filters="sRGB">
<feFlood flood-opacity="0" result="BackgroundImageFix"/>
<feBlend mode="normal" in="SourceGraphic" in2="BackgroundImageFix" result="shape"/>
<feColorMatrix in="SourceAlpha" type="matrix" values="0 0 0 0 0 0 0 0 0 0 0 0 0 0 0 0 0 0 127 0" result="hardAlpha"/>
<feOffset dy="-1"/>
<feGaussianBlur stdDeviation="2"/>
<feComposite in2="hardAlpha" operator="arithmetic" k2="-1" k3="1"/>
<feColorMatrix type="matrix" values="0 0 0 0 0 0 0 0 0 0 0 0 0 0 0 0 0 0 0.25 0"/>
<feBlend mode="normal" in2="shape" result="effect1_innerShadow_334_5535"/>
</filter>
<filter id="filter17_i_334_5535" x="681.685" y="403.075" width="63.5088" height="64.5088" filterUnits="userSpaceOnUse" color-interpolation-filters="sRGB">
<feFlood flood-opacity="0" result="BackgroundImageFix"/>
<feBlend mode="normal" in="SourceGraphic" in2="BackgroundImageFix" result="shape"/>
<feColorMatrix in="SourceAlpha" type="matrix" values="0 0 0 0 0 0 0 0 0 0 0 0 0 0 0 0 0 0 127 0" result="hardAlpha"/>
<feOffset dy="-1"/>
<feGaussianBlur stdDeviation="2"/>
<feComposite in2="hardAlpha" operator="arithmetic" k2="-1" k3="1"/>
<feColorMatrix type="matrix" values="0 0 0 0 0 0 0 0 0 0 0 0 0 0 0 0 0 0 0.25 0"/>
<feBlend mode="normal" in2="shape" result="effect1_innerShadow_334_5535"/>
</filter>
<filter id="filter18_i_334_5535" x="747.637" y="403.075" width="63.5088" height="64.5088" filterUnits="userSpaceOnUse" color-interpolation-filters="sRGB">
<feFlood flood-opacity="0" result="BackgroundImageFix"/>
<feBlend mode="normal" in="SourceGraphic" in2="BackgroundImageFix" result="shape"/>
<feColorMatrix in="SourceAlpha" type="matrix" values="0 0 0 0 0 0 0 0 0 0 0 0 0 0 0 0 0 0 127 0" result="hardAlpha"/>
<feOffset dy="-1"/>
<feGaussianBlur stdDeviation="2"/>
<feComposite in2="hardAlpha" operator="arithmetic" k2="-1" k3="1"/>
<feColorMatrix type="matrix" values="0 0 0 0 0 0 0 0 0 0 0 0 0 0 0 0 0 0 0.25 0"/>
<feBlend mode="normal" in2="shape" result="effect1_innerShadow_334_5535"/>
</filter>
<filter id="filter19_i_334_5535" x="813.588" y="403.075" width="63.5088" height="64.5088" filterUnits="userSpaceOnUse" color-interpolation-filters="sRGB">
<feFlood flood-opacity="0" result="BackgroundImageFix"/>
<feBlend mode="normal" in="SourceGraphic" in2="BackgroundImageFix" result="shape"/>
<feColorMatrix in="SourceAlpha" type="matrix" values="0 0 0 0 0 0 0 0 0 0 0 0 0 0 0 0 0 0 127 0" result="hardAlpha"/>
<feOffset dy="-1"/>
<feGaussianBlur stdDeviation="2"/>
<feComposite in2="hardAlpha" operator="arithmetic" k2="-1" k3="1"/>
<feColorMatrix type="matrix" values="0 0 0 0 0 0 0 0 0 0 0 0 0 0 0 0 0 0 0.25 0"/>
<feBlend mode="normal" in2="shape" result="effect1_innerShadow_334_5535"/>
</filter>
<filter id="filter20_i_334_5535" x="879.539" y="403.075" width="63.5088" height="64.5088" filterUnits="userSpaceOnUse" color-interpolation-filters="sRGB">
<feFlood flood-opacity="0" result="BackgroundImageFix"/>
<feBlend mode="normal" in="SourceGraphic" in2="BackgroundImageFix" result="shape"/>
<feColorMatrix in="SourceAlpha" type="matrix" values="0 0 0 0 0 0 0 0 0 0 0 0 0 0 0 0 0 0 127 0" result="hardAlpha"/>
<feOffset dy="-1"/>
<feGaussianBlur stdDeviation="2"/>
<feComposite in2="hardAlpha" operator="arithmetic" k2="-1" k3="1"/>
<feColorMatrix type="matrix" values="0 0 0 0 0 0 0 0 0 0 0 0 0 0 0 0 0 0 0.25 0"/>
<feBlend mode="normal" in2="shape" result="effect1_innerShadow_334_5535"/>
</filter>
<filter id="filter21_i_334_5535" x="945.492" y="403.075" width="63.5088" height="64.5088" filterUnits="userSpaceOnUse" color-interpolation-filters="sRGB">
<feFlood flood-opacity="0" result="BackgroundImageFix"/>
<feBlend mode="normal" in="SourceGraphic" in2="BackgroundImageFix" result="shape"/>
<feColorMatrix in="SourceAlpha" type="matrix" values="0 0 0 0 0 0 0 0 0 0 0 0 0 0 0 0 0 0 127 0" result="hardAlpha"/>
<feOffset dy="-1"/>
<feGaussianBlur stdDeviation="2"/>
<feComposite in2="hardAlpha" operator="arithmetic" k2="-1" k3="1"/>
<feColorMatrix type="matrix" values="0 0 0 0 0 0 0 0 0 0 0 0 0 0 0 0 0 0 0.25 0"/>
<feBlend mode="normal" in2="shape" result="effect1_innerShadow_334_5535"/>
</filter>
<filter id="filter22_i_334_5535" x="540.863" y="944.491" width="63.5088" height="64.5088" filterUnits="userSpaceOnUse" color-interpolation-filters="sRGB">
<feFlood flood-opacity="0" result="BackgroundImageFix"/>
<feBlend mode="normal" in="SourceGraphic" in2="BackgroundImageFix" result="shape"/>
<feColorMatrix in="SourceAlpha" type="matrix" values="0 0 0 0 0 0 0 0 0 0 0 0 0 0 0 0 0 0 127 0" result="hardAlpha"/>
<feOffset dy="-1"/>
<feGaussianBlur stdDeviation="2"/>
<feComposite in2="hardAlpha" operator="arithmetic" k2="-1" k3="1"/>
<feColorMatrix type="matrix" values="0 0 0 0 0 0 0 0 0 0 0 0 0 0 0 0 0 0 0.25 0"/>
<feBlend mode="normal" in2="shape" result="effect1_innerShadow_334_5535"/>
</filter>
<filter id="filter23_i_334_5535" x="472.469" y="944.491" width="63.5088" height="64.5088" filterUnits="userSpaceOnUse" color-interpolation-filters="sRGB">
<feFlood flood-opacity="0" result="BackgroundImageFix"/>
<feBlend mode="normal" in="SourceGraphic" in2="BackgroundImageFix" result="shape"/>
<feColorMatrix in="SourceAlpha" type="matrix" values="0 0 0 0 0 0 0 0 0 0 0 0 0 0 0 0 0 0 127 0" result="hardAlpha"/>
<feOffset dy="-1"/>
<feGaussianBlur stdDeviation="2"/>
<feComposite in2="hardAlpha" operator="arithmetic" k2="-1" k3="1"/>
<feColorMatrix type="matrix" values="0 0 0 0 0 0 0 0 0 0 0 0 0 0 0 0 0 0 0.25 0"/>
<feBlend mode="normal" in2="shape" result="effect1_innerShadow_334_5535"/>
</filter>
<filter id="filter24_i_334_5535" x="404.075" y="944.491" width="63.5088" height="64.5088" filterUnits="userSpaceOnUse" color-interpolation-filters="sRGB">
<feFlood flood-opacity="0" result="BackgroundImageFix"/>
<feBlend mode="normal" in="SourceGraphic" in2="BackgroundImageFix" result="shape"/>
<feColorMatrix in="SourceAlpha" type="matrix" values="0 0 0 0 0 0 0 0 0 0 0 0 0 0 0 0 0 0 127 0" result="hardAlpha"/>
<feOffset dy="-1"/>
<feGaussianBlur stdDeviation="2"/>
<feComposite in2="hardAlpha" operator="arithmetic" k2="-1" k3="1"/>
<feColorMatrix type="matrix" values="0 0 0 0 0 0 0 0 0 0 0 0 0 0 0 0 0 0 0.25 0"/>
<feBlend mode="normal" in2="shape" result="effect1_innerShadow_334_5535"/>
</filter>
<filter id="filter25_i_334_5535" x="540.863" y="878.54" width="63.5088" height="64.5088" filterUnits="userSpaceOnUse" color-interpolation-filters="sRGB">
<feFlood flood-opacity="0" result="BackgroundImageFix"/>
<feBlend mode="normal" in="SourceGraphic" in2="BackgroundImageFix" result="shape"/>
<feColorMatrix in="SourceAlpha" type="matrix" values="0 0 0 0 0 0 0 0 0 0 0 0 0 0 0 0 0 0 127 0" result="hardAlpha"/>
<feOffset dy="-1"/>
<feGaussianBlur stdDeviation="2"/>
<feComposite in2="hardAlpha" operator="arithmetic" k2="-1" k3="1"/>
<feColorMatrix type="matrix" values="0 0 0 0 0 0 0 0 0 0 0 0 0 0 0 0 0 0 0.25 0"/>
<feBlend mode="normal" in2="shape" result="effect1_innerShadow_334_5535"/>
</filter>
<filter id="filter26_i_334_5535" x="540.863" y="812.588" width="63.5088" height="64.5088" filterUnits="userSpaceOnUse" color-interpolation-filters="sRGB">
<feFlood flood-opacity="0" result="BackgroundImageFix"/>
<feBlend mode="normal" in="SourceGraphic" in2="BackgroundImageFix" result="shape"/>
<feColorMatrix in="SourceAlpha" type="matrix" values="0 0 0 0 0 0 0 0 0 0 0 0 0 0 0 0 0 0 127 0" result="hardAlpha"/>
<feOffset dy="-1"/>
<feGaussianBlur stdDeviation="2"/>
<feComposite in2="hardAlpha" operator="arithmetic" k2="-1" k3="1"/>
<feColorMatrix type="matrix" values="0 0 0 0 0 0 0 0 0 0 0 0 0 0 0 0 0 0 0.25 0"/>
<feBlend mode="normal" in2="shape" result="effect1_innerShadow_334_5535"/>
</filter>
<filter id="filter27_i_334_5535" x="540.863" y="746.637" width="63.5088" height="64.5088" filterUnits="userSpaceOnUse" color-interpolation-filters="sRGB">
<feFlood flood-opacity="0" result="BackgroundImageFix"/>
<feBlend mode="normal" in="SourceGraphic" in2="BackgroundImageFix" result="shape"/>
<feColorMatrix in="SourceAlpha" type="matrix" values="0 0 0 0 0 0 0 0 0 0 0 0 0 0 0 0 0 0 127 0" result="hardAlpha"/>
<feOffset dy="-1"/>
<feGaussianBlur stdDeviation="2"/>
<feComposite in2="hardAlpha" operator="arithmetic" k2="-1" k3="1"/>
<feColorMatrix type="matrix" values="0 0 0 0 0 0 0 0 0 0 0 0 0 0 0 0 0 0 0.25 0"/>
<feBlend mode="normal" in2="shape" result="effect1_innerShadow_334_5535"/>
</filter>
<filter id="filter28_i_334_5535" x="540.863" y="680.685" width="63.5088" height="64.5088" filterUnits="userSpaceOnUse" color-interpolation-filters="sRGB">
<feFlood flood-opacity="0" result="BackgroundImageFix"/>
<feBlend mode="normal" in="SourceGraphic" in2="BackgroundImageFix" result="shape"/>
<feColorMatrix in="SourceAlpha" type="matrix" values="0 0 0 0 0 0 0 0 0 0 0 0 0 0 0 0 0 0 127 0" result="hardAlpha"/>
<feOffset dy="-1"/>
<feGaussianBlur stdDeviation="2"/>
<feComposite in2="hardAlpha" operator="arithmetic" k2="-1" k3="1"/>
<feColorMatrix type="matrix" values="0 0 0 0 0 0 0 0 0 0 0 0 0 0 0 0 0 0 0.25 0"/>
<feBlend mode="normal" in2="shape" result="effect1_innerShadow_334_5535"/>
</filter>
<filter id="filter29_i_334_5535" x="540.863" y="614.734" width="63.5088" height="64.5088" filterUnits="userSpaceOnUse" color-interpolation-filters="sRGB">
<feFlood flood-opacity="0" result="BackgroundImageFix"/>
<feBlend mode="normal" in="SourceGraphic" in2="BackgroundImageFix" result="shape"/>
<feColorMatrix in="SourceAlpha" type="matrix" values="0 0 0 0 0 0 0 0 0 0 0 0 0 0 0 0 0 0 127 0" result="hardAlpha"/>
<feOffset dy="-1"/>
<feGaussianBlur stdDeviation="2"/>
<feComposite in2="hardAlpha" operator="arithmetic" k2="-1" k3="1"/>
<feColorMatrix type="matrix" values="0 0 0 0 0 0 0 0 0 0 0 0 0 0 0 0 0 0 0.25 0"/>
<feBlend mode="normal" in2="shape" result="effect1_innerShadow_334_5535"/>
</filter>
<filter id="filter30_i_334_5535" x="472.469" y="878.54" width="63.5088" height="64.5088" filterUnits="userSpaceOnUse" color-interpolation-filters="sRGB">
<feFlood flood-opacity="0" result="BackgroundImageFix"/>
<feBlend mode="normal" in="SourceGraphic" in2="BackgroundImageFix" result="shape"/>
<feColorMatrix in="SourceAlpha" type="matrix" values="0 0 0 0 0 0 0 0 0 0 0 0 0 0 0 0 0 0 127 0" result="hardAlpha"/>
<feOffset dy="-1"/>
<feGaussianBlur stdDeviation="2"/>
<feComposite in2="hardAlpha" operator="arithmetic" k2="-1" k3="1"/>
<feColorMatrix type="matrix" values="0 0 0 0 0 0 0 0 0 0 0 0 0 0 0 0 0 0 0.25 0"/>
<feBlend mode="normal" in2="shape" result="effect1_innerShadow_334_5535"/>
</filter>
<filter id="filter31_i_334_5535" x="472.469" y="812.588" width="63.5088" height="64.5088" filterUnits="userSpaceOnUse" color-interpolation-filters="sRGB">
<feFlood flood-opacity="0" result="BackgroundImageFix"/>
<feBlend mode="normal" in="SourceGraphic" in2="BackgroundImageFix" result="shape"/>
<feColorMatrix in="SourceAlpha" type="matrix" values="0 0 0 0 0 0 0 0 0 0 0 0 0 0 0 0 0 0 127 0" result="hardAlpha"/>
<feOffset dy="-1"/>
<feGaussianBlur stdDeviation="2"/>
<feComposite in2="hardAlpha" operator="arithmetic" k2="-1" k3="1"/>
<feColorMatrix type="matrix" values="0 0 0 0 0 0 0 0 0 0 0 0 0 0 0 0 0 0 0.25 0"/>
<feBlend mode="normal" in2="shape" result="effect1_innerShadow_334_5535"/>
</filter>
<filter id="filter32_i_334_5535" x="472.469" y="746.637" width="63.5088" height="64.5088" filterUnits="userSpaceOnUse" color-interpolation-filters="sRGB">
<feFlood flood-opacity="0" result="BackgroundImageFix"/>
<feBlend mode="normal" in="SourceGraphic" in2="BackgroundImageFix" result="shape"/>
<feColorMatrix in="SourceAlpha" type="matrix" values="0 0 0 0 0 0 0 0 0 0 0 0 0 0 0 0 0 0 127 0" result="hardAlpha"/>
<feOffset dy="-1"/>
<feGaussianBlur stdDeviation="2"/>
<feComposite in2="hardAlpha" operator="arithmetic" k2="-1" k3="1"/>
<feColorMatrix type="matrix" values="0 0 0 0 0 0 0 0 0 0 0 0 0 0 0 0 0 0 0.25 0"/>
<feBlend mode="normal" in2="shape" result="effect1_innerShadow_334_5535"/>
</filter>
<filter id="filter33_i_334_5535" x="472.469" y="680.685" width="63.5088" height="64.5088" filterUnits="userSpaceOnUse" color-interpolation-filters="sRGB">
<feFlood flood-opacity="0" result="BackgroundImageFix"/>
<feBlend mode="normal" in="SourceGraphic" in2="BackgroundImageFix" result="shape"/>
<feColorMatrix in="SourceAlpha" type="matrix" values="0 0 0 0 0 0 0 0 0 0 0 0 0 0 0 0 0 0 127 0" result="hardAlpha"/>
<feOffset dy="-1"/>
<feGaussianBlur stdDeviation="2"/>
<feComposite in2="hardAlpha" operator="arithmetic" k2="-1" k3="1"/>
<feColorMatrix type="matrix" values="0 0 0 0 0 0 0 0 0 0 0 0 0 0 0 0 0 0 0.25 0"/>
<feBlend mode="normal" in2="shape" result="effect1_innerShadow_334_5535"/>
</filter>
<filter id="filter34_i_334_5535" x="472.469" y="614.734" width="63.5088" height="64.5088" filterUnits="userSpaceOnUse" color-interpolation-filters="sRGB">
<feFlood flood-opacity="0" result="BackgroundImageFix"/>
<feBlend mode="normal" in="SourceGraphic" in2="BackgroundImageFix" result="shape"/>
<feColorMatrix in="SourceAlpha" type="matrix" values="0 0 0 0 0 0 0 0 0 0 0 0 0 0 0 0 0 0 127 0" result="hardAlpha"/>
<feOffset dy="-1"/>
<feGaussianBlur stdDeviation="2"/>
<feComposite in2="hardAlpha" operator="arithmetic" k2="-1" k3="1"/>
<feColorMatrix type="matrix" values="0 0 0 0 0 0 0 0 0 0 0 0 0 0 0 0 0 0 0.25 0"/>
<feBlend mode="normal" in2="shape" result="effect1_innerShadow_334_5535"/>
</filter>
<filter id="filter35_i_334_5535" x="404.075" y="878.54" width="63.5088" height="64.5088" filterUnits="userSpaceOnUse" color-interpolation-filters="sRGB">
<feFlood flood-opacity="0" result="BackgroundImageFix"/>
<feBlend mode="normal" in="SourceGraphic" in2="BackgroundImageFix" result="shape"/>
<feColorMatrix in="SourceAlpha" type="matrix" values="0 0 0 0 0 0 0 0 0 0 0 0 0 0 0 0 0 0 127 0" result="hardAlpha"/>
<feOffset dy="-1"/>
<feGaussianBlur stdDeviation="2"/>
<feComposite in2="hardAlpha" operator="arithmetic" k2="-1" k3="1"/>
<feColorMatrix type="matrix" values="0 0 0 0 0 0 0 0 0 0 0 0 0 0 0 0 0 0 0.25 0"/>
<feBlend mode="normal" in2="shape" result="effect1_innerShadow_334_5535"/>
</filter>
<filter id="filter36_i_334_5535" x="404.075" y="812.705" width="63.5088" height="64.3923" filterUnits="userSpaceOnUse" color-interpolation-filters="sRGB">
<feFlood flood-opacity="0" result="BackgroundImageFix"/>
<feBlend mode="normal" in="SourceGraphic" in2="BackgroundImageFix" result="shape"/>
<feColorMatrix in="SourceAlpha" type="matrix" values="0 0 0 0 0 0 0 0 0 0 0 0 0 0 0 0 0 0 127 0" result="hardAlpha"/>
<feOffset dy="-1"/>
<feGaussianBlur stdDeviation="2"/>
<feComposite in2="hardAlpha" operator="arithmetic" k2="-1" k3="1"/>
<feColorMatrix type="matrix" values="0 0 0 0 0 0 0 0 0 0 0 0 0 0 0 0 0 0 0.25 0"/>
<feBlend mode="normal" in2="shape" result="effect1_innerShadow_334_5535"/>
</filter>
<filter id="filter37_i_334_5535" x="404.075" y="746.637" width="63.5088" height="64.5088" filterUnits="userSpaceOnUse" color-interpolation-filters="sRGB">
<feFlood flood-opacity="0" result="BackgroundImageFix"/>
<feBlend mode="normal" in="SourceGraphic" in2="BackgroundImageFix" result="shape"/>
<feColorMatrix in="SourceAlpha" type="matrix" values="0 0 0 0 0 0 0 0 0 0 0 0 0 0 0 0 0 0 127 0" result="hardAlpha"/>
<feOffset dy="-1"/>
<feGaussianBlur stdDeviation="2"/>
<feComposite in2="hardAlpha" operator="arithmetic" k2="-1" k3="1"/>
<feColorMatrix type="matrix" values="0 0 0 0 0 0 0 0 0 0 0 0 0 0 0 0 0 0 0.25 0"/>
<feBlend mode="normal" in2="shape" result="effect1_innerShadow_334_5535"/>
</filter>
<filter id="filter38_i_334_5535" x="404.075" y="680.685" width="63.5088" height="64.5088" filterUnits="userSpaceOnUse" color-interpolation-filters="sRGB">
<feFlood flood-opacity="0" result="BackgroundImageFix"/>
<feBlend mode="normal" in="SourceGraphic" in2="BackgroundImageFix" result="shape"/>
<feColorMatrix in="SourceAlpha" type="matrix" values="0 0 0 0 0 0 0 0 0 0 0 0 0 0 0 0 0 0 127 0" result="hardAlpha"/>
<feOffset dy="-1"/>
<feGaussianBlur stdDeviation="2"/>
<feComposite in2="hardAlpha" operator="arithmetic" k2="-1" k3="1"/>
<feColorMatrix type="matrix" values="0 0 0 0 0 0 0 0 0 0 0 0 0 0 0 0 0 0 0.25 0"/>
<feBlend mode="normal" in2="shape" result="effect1_innerShadow_334_5535"/>
</filter>
<filter id="filter39_i_334_5535" x="404.075" y="614.734" width="63.5088" height="64.5088" filterUnits="userSpaceOnUse" color-interpolation-filters="sRGB">
<feFlood flood-opacity="0" result="BackgroundImageFix"/>
<feBlend mode="normal" in="SourceGraphic" in2="BackgroundImageFix" result="shape"/>
<feColorMatrix in="SourceAlpha" type="matrix" values="0 0 0 0 0 0 0 0 0 0 0 0 0 0 0 0 0 0 127 0" result="hardAlpha"/>
<feOffset dy="-1"/>
<feGaussianBlur stdDeviation="2"/>
<feComposite in2="hardAlpha" operator="arithmetic" k2="-1" k3="1"/>
<feColorMatrix type="matrix" values="0 0 0 0 0 0 0 0 0 0 0 0 0 0 0 0 0 0 0.25 0"/>
<feBlend mode="normal" in2="shape" result="effect1_innerShadow_334_5535"/>
</filter>
<filter id="filter40_i_334_5535" x="620.132" y="618.482" width="385.933" height="385.933" filterUnits="userSpaceOnUse" color-interpolation-filters="sRGB">
<feFlood flood-opacity="0" result="BackgroundImageFix"/>
<feBlend mode="normal" in="SourceGraphic" in2="BackgroundImageFix" result="shape"/>
<feColorMatrix in="SourceAlpha" type="matrix" values="0 0 0 0 0 0 0 0 0 0 0 0 0 0 0 0 0 0 127 0" result="hardAlpha"/>
<feMorphology radius="6" operator="erode" in="SourceAlpha" result="effect1_innerShadow_334_5535"/>
<feOffset/>
<feGaussianBlur stdDeviation="5.85"/>
<feComposite in2="hardAlpha" operator="arithmetic" k2="-1" k3="1"/>
<feColorMatrix type="matrix" values="0 0 0 0 1 0 0 0 0 1 0 0 0 0 1 0 0 0 0.25 0"/>
<feBlend mode="normal" in2="shape" result="effect1_innerShadow_334_5535"/>
</filter>
<filter id="filter41_i_334_5535" x="2.74902" y="618.482" width="385.933" height="385.933" filterUnits="userSpaceOnUse" color-interpolation-filters="sRGB">
<feFlood flood-opacity="0" result="BackgroundImageFix"/>
<feBlend mode="normal" in="SourceGraphic" in2="BackgroundImageFix" result="shape"/>
<feColorMatrix in="SourceAlpha" type="matrix" values="0 0 0 0 0 0 0 0 0 0 0 0 0 0 0 0 0 0 127 0" result="hardAlpha"/>
<feMorphology radius="5" operator="erode" in="SourceAlpha" result="effect1_innerShadow_334_5535"/>
<feOffset/>
<feGaussianBlur stdDeviation="5"/>
<feComposite in2="hardAlpha" operator="arithmetic" k2="-1" k3="1"/>
<feColorMatrix type="matrix" values="0 0 0 0 1 0 0 0 0 1 0 0 0 0 1 0 0 0 0.25 0"/>
<feBlend mode="normal" in2="shape" result="effect1_innerShadow_334_5535"/>
</filter>
<filter id="filter42_i_334_5535" x="2.74902" y="2.74878" width="385.933" height="385.933" filterUnits="userSpaceOnUse" color-interpolation-filters="sRGB">
<feFlood flood-opacity="0" result="BackgroundImageFix"/>
<feBlend mode="normal" in="SourceGraphic" in2="BackgroundImageFix" result="shape"/>
<feColorMatrix in="SourceAlpha" type="matrix" values="0 0 0 0 0 0 0 0 0 0 0 0 0 0 0 0 0 0 127 0" result="hardAlpha"/>
<feMorphology radius="5" operator="erode" in="SourceAlpha" result="effect1_innerShadow_334_5535"/>
<feOffset/>
<feGaussianBlur stdDeviation="5"/>
<feComposite in2="hardAlpha" operator="arithmetic" k2="-1" k3="1"/>
<feColorMatrix type="matrix" values="0 0 0 0 1 0 0 0 0 1 0 0 0 0 1 0 0 0 0.25 0"/>
<feBlend mode="normal" in2="shape" result="effect1_innerShadow_334_5535"/>
</filter>
<filter id="filter43_i_334_5535" x="620.132" y="2.74878" width="385.933" height="385.933" filterUnits="userSpaceOnUse" color-interpolation-filters="sRGB">
<feFlood flood-opacity="0" result="BackgroundImageFix"/>
<feBlend mode="normal" in="SourceGraphic" in2="BackgroundImageFix" result="shape"/>
<feColorMatrix in="SourceAlpha" type="matrix" values="0 0 0 0 0 0 0 0 0 0 0 0 0 0 0 0 0 0 127 0" result="hardAlpha"/>
<feMorphology radius="5" operator="erode" in="SourceAlpha" result="effect1_innerShadow_334_5535"/>
<feOffset/>
<feGaussianBlur stdDeviation="5"/>
<feComposite in2="hardAlpha" operator="arithmetic" k2="-1" k3="1"/>
<feColorMatrix type="matrix" values="0 0 0 0 1 0 0 0 0 1 0 0 0 0 1 0 0 0 0.25 0"/>
<feBlend mode="normal" in2="shape" result="effect1_innerShadow_334_5535"/>
</filter>
</defs>
</svg>
